<mxfile host="app.diagrams.net" modified="2024-03-09T06:39:06.585Z" agent="Mozilla/5.0 (X11; Ubuntu; Linux x86_64; rv:109.0) Gecko/20100101 Firefox/118.0" version="24.0.3" etag="M2M0xsOt8Rijbe6dwhRN" type="github">
  <diagram name="Page-1" id="5MUYFVskaWrX5PHqLzCh">
    <mxGraphModel>
      <root>
        <mxCell id="0" />
        <mxCell id="1" parent="0" />
      </root>
    </mxGraphModel>
  </diagram>
</mxfile>
